<svg fill="#000000" xmlns="http://www.w3.org/2000/svg"  viewBox="0 0 64 64" width="64px" height="64px"><path d="M 32 4 C 16.547862 4 4 16.547873 4 32 C 4 47.452127 16.547862 60 32 60 C 47.452138 60 60 47.452127 60 32 C 60 16.547873 47.452138 4 32 4 z M 32 6 C 46.371259 6 58 17.628751 58 32 C 58 46.371249 46.371259 58 32 58 C 17.628741 58 6 46.371249 6 32 C 6 17.628751 17.628741 6 32 6 z M 33.396484 9.046875 C 32.847484 9.026875 32.371844 9.431375 32.339844 9.984375 L 32.220703 11.980469 C 32.186703 12.532469 32.606203 13.006063 33.158203 13.039062 C 33.179203 13.040063 33.19775 13.041016 33.21875 13.041016 C 33.74375 13.041016 34.185797 12.632563 34.216797 12.101562 L 34.335938 10.105469 C 34.369937 9.5534688 33.948484 9.079875 33.396484 9.046875 z M 27.927734 9.3632812 C 27.383734 9.4602812 27.019188 9.9804375 27.117188 10.523438 L 27.470703 12.492188 C 27.557703 12.976188 27.977125 13.316406 28.453125 13.316406 C 28.512125 13.316406 28.570859 13.313734 28.630859 13.302734 C 29.174859 13.205734 29.537453 12.685578 29.439453 12.142578 L 29.087891 10.173828 C 28.990891 9.6298281 28.471734 9.2692813 27.927734 9.3632812 z M 38.398438 9.9863281 C 38.010406 10.025094 37.667172 10.290297 37.544922 10.685547 L 36.953125 12.595703 C 36.790125 13.123703 37.084328 13.684656 37.611328 13.847656 C 37.710328 13.877656 37.810203 13.892578 37.908203 13.892578 C 38.335203 13.892578 38.730281 13.6155 38.863281 13.1875 L 39.453125 11.277344 C 39.616125 10.749344 39.321922 10.190344 38.794922 10.027344 C 38.662672 9.9863437 38.527781 9.9734063 38.398438 9.9863281 z M 23.066406 10.884766 C 22.936359 10.887047 22.804234 10.914953 22.677734 10.970703 C 22.172734 11.194703 21.945922 11.786016 22.169922 12.291016 L 22.982422 14.117188 C 23.148422 14.490187 23.514437 14.712891 23.898438 14.712891 C 24.034438 14.712891 24.171734 14.685953 24.302734 14.626953 C 24.807734 14.402953 25.034547 13.811641 24.810547 13.306641 L 23.998047 11.478516 C 23.830797 11.099766 23.456547 10.877922 23.066406 10.884766 z M 43.427734 12.128906 C 43.041391 12.074437 42.643891 12.250719 42.431641 12.605469 L 41.402344 14.320312 C 41.118344 14.794313 41.270141 15.409359 41.744141 15.693359 C 41.905141 15.790359 42.084766 15.835938 42.259766 15.835938 C 42.599766 15.835938 42.930188 15.662609 43.117188 15.349609 L 44.146484 13.634766 C 44.430484 13.160766 44.276734 12.547672 43.802734 12.263672 C 43.683984 12.192422 43.556516 12.147063 43.427734 12.128906 z M 43 19 A 1 1 0 0 0 43 21 A 1 1 0 0 0 43 19 z M 36.953125 21.806641 C 36.356718 21.806661 35.770961 21.882944 35.224609 22.039062 C 34.678258 22.195163 34.162291 22.433078 33.736328 22.833984 C 33.310366 23.234854 33 23.847222 33 24.5 C 33 25.416667 33.621271 26.116004 34.226562 26.519531 C 34.831854 26.923059 35.503906 27.177734 36.128906 27.427734 C 36.753906 27.677734 37.331854 27.923059 37.664062 28.144531 C 37.996271 28.366004 38 28.416667 38 28.5 C 38 28.694444 37.805612 29.010109 37.121094 29.238281 C 36.436576 29.466454 35.407651 29.486888 34.371094 29.072266 A 1.0001 1.0001 0 1 0 33.628906 30.927734 C 35.092349 31.513112 36.563424 31.533546 37.753906 31.136719 C 38.944388 30.739891 40 29.805556 40 28.5 C 40 27.583333 39.378729 26.883996 38.773438 26.480469 C 38.168146 26.076941 37.496094 25.822266 36.871094 25.572266 C 36.246094 25.322266 35.668146 25.076941 35.335938 24.855469 C 35.003729 24.633996 35 24.583333 35 24.5 C 35 24.40278 35.0021 24.39011 35.107422 24.291016 C 35.212709 24.191926 35.446742 24.054837 35.775391 23.960938 C 36.432687 23.773139 37.429015 23.763469 38.257812 23.970703 A 1.0004596 1.0004596 0 1 0 38.742188 22.029297 C 38.156587 21.882896 37.549532 21.80662 36.953125 21.806641 z M 49.669922 21.822266 C 49.187779 21.825039 48.747037 21.898749 48.347656 22.042969 C 47.548894 22.331411 46.972454 22.906115 46.630859 23.503906 C 45.94767 24.699487 46 26 46 26.5 C 46 27.25 45.932499 28.54754 46.648438 29.710938 C 47.006405 30.292635 47.616327 30.815911 48.408203 31.046875 C 49.200079 31.277839 50.128052 31.249235 51.242188 30.970703 A 1.0004596 1.0004596 0 1 0 50.757812 29.029297 C 49.871947 29.250763 49.299921 29.222164 48.966797 29.125 C 48.633673 29.02784 48.493595 28.894865 48.351562 28.664062 C 48.067501 28.202461 48 27.25 48 26.5 C 48 26 48.05233 25.050512 48.369141 24.496094 C 48.527546 24.218885 48.701106 24.043589 49.027344 23.925781 C 49.353582 23.807973 49.890969 23.753994 50.757812 23.970703 A 1.0004596 1.0004596 0 1 0 51.242188 22.029297 C 50.675609 21.887652 50.152065 21.819492 49.669922 21.822266 z M 12.984375 21.986328 A 1.0001 1.0001 0 0 0 12 23 L 12 23.847656 A 1.0001 1.0001 0 0 0 12 24.179688 L 12 30 A 1.0001 1.0001 0 1 0 14 30 L 14 24.402344 C 14.281473 24.122425 14.523926 24 15.5 24 C 15.813622 24 15.946277 24.07562 15.994141 24.107422 A 1.0001 1.0001 0 0 0 16 24.146484 L 16 30 A 1.0001 1.0001 0 1 0 18 30 L 18 24.445312 C 18.278727 24.16989 18.531329 24 19.5 24 C 19.817174 24 19.95406 24.07627 20 24.107422 L 20 30 A 1.0001 1.0001 0 1 0 22 30 L 22 24 C 22 23.416667 21.687943 22.859219 21.224609 22.511719 C 20.761276 22.164219 20.166667 22 19.5 22 C 18.508002 22 17.814654 22.267309 17.263672 22.585938 C 17.241292 22.567547 17.247759 22.529089 17.224609 22.511719 C 16.761273 22.16422 16.166667 22 15.5 22 C 14.797191 22 14.222417 22.135862 13.748047 22.326172 A 1.0001 1.0001 0 0 0 12.984375 21.986328 z M 24.984375 21.986328 A 1.0001 1.0001 0 0 0 24 23 L 24 28 C 24 28.861111 24.120282 29.595665 24.59375 30.1875 C 25.067218 30.779335 25.833333 31 26.5 31 C 27.333333 31 28.054604 30.657863 28.763672 30.232422 C 28.850692 30.180212 28.916117 30.100437 29.001953 30.044922 A 1.0001 1.0001 0 0 0 31 30 L 31 28.126953 A 1.0001 1.0001 0 0 0 31 27.853516 L 31 23 A 1.0001 1.0001 0 1 0 29 23 L 29 27.523438 C 28.60575 27.882592 28.175455 28.254102 27.736328 28.517578 C 27.195396 28.842137 26.666667 29 26.5 29 C 26.166667 29 26.182782 28.970665 26.15625 28.9375 C 26.129718 28.904335 26 28.638889 26 28 L 26 23 A 1.0001 1.0001 0 0 0 24.984375 21.986328 z M 42.984375 21.986328 A 1.0001 1.0001 0 0 0 42 23 L 42 30 A 1.0001 1.0001 0 1 0 44 30 L 44 23 A 1.0001 1.0001 0 0 0 42.984375 21.986328 z M 47.306641 34.505859 C 45.273975 34.439004 43 34.97125 43 35.8125 C 43 36.447052 44.93745 36.850906 46.263672 37.0625 C 42.556428 38.326686 36.234681 40 31 40 C 26.415 40 18.910422 38.248562 14.732422 36.976562 C 14.195422 36.812562 13.836063 37.520516 14.289062 37.853516 C 17.504062 40.216516 23.78 44 31 44 C 38.819724 44 44.657253 40.409138 47.355469 37.949219 C 47.146711 39.26495 46.794749 42 47.476562 42 C 48.477562 42 51.505109 36.765891 50.162109 35.337891 C 49.658484 34.802391 48.52624 34.545973 47.306641 34.505859 z M 42.121094 48.173828 C 41.992391 48.191984 41.864844 48.235391 41.746094 48.306641 C 41.272094 48.590641 41.118344 49.205688 41.402344 49.679688 L 42.431641 51.394531 C 42.618641 51.706531 42.949062 51.878906 43.289062 51.878906 C 43.464063 51.878906 43.643687 51.832328 43.804688 51.736328 C 44.278688 51.452328 44.430484 50.839234 44.146484 50.365234 L 43.117188 48.650391 C 42.904187 48.295641 42.507203 48.119359 42.121094 48.173828 z M 23.916016 49.289062 C 23.526859 49.282453 23.153875 49.504812 22.984375 49.882812 L 22.171875 51.708984 C 21.948875 52.213984 22.174688 52.804297 22.679688 53.029297 C 22.811688 53.088297 22.947984 53.115234 23.083984 53.115234 C 23.467984 53.115234 23.832047 52.895484 23.998047 52.521484 L 24.8125 50.693359 C 25.0355 50.188359 24.809687 49.598047 24.304688 49.373047 C 24.178687 49.317297 24.045734 49.291266 23.916016 49.289062 z M 38.009766 50.115234 C 37.880281 50.102094 37.744328 50.114047 37.611328 50.154297 C 37.084328 50.317297 36.790125 50.876297 36.953125 51.404297 L 37.544922 53.314453 C 37.677922 53.743453 38.070047 54.019531 38.498047 54.019531 C 38.596047 54.019531 38.695922 54.004609 38.794922 53.974609 C 39.321922 53.811609 39.616125 53.250656 39.453125 52.722656 L 38.863281 50.8125 C 38.741031 50.418 38.398219 50.154656 38.009766 50.115234 z M 28.630859 50.697266 C 28.084859 50.599266 27.568703 50.961859 27.470703 51.505859 L 27.117188 53.474609 C 27.020188 54.017609 27.383734 54.536766 27.927734 54.634766 C 27.987734 54.645766 28.044516 54.650391 28.103516 54.650391 C 28.578516 54.650391 29.000891 54.312172 29.087891 53.826172 L 29.439453 51.857422 C 29.536453 51.314422 29.174859 50.795266 28.630859 50.697266 z M 33.158203 50.960938 C 32.607203 50.994938 32.187703 51.467531 32.220703 52.019531 L 32.339844 54.015625 C 32.370844 54.546625 32.810938 54.955078 33.335938 54.955078 C 33.355937 54.955078 33.375484 54.954125 33.396484 54.953125 C 33.947484 54.919125 34.368938 54.446531 34.335938 53.894531 L 34.216797 51.898438 C 34.183797 51.347437 33.708203 50.933937 33.158203 50.960938 z"/></svg>