<?xml version="1.0" encoding="UTF-8"?>
<svg xmlns="http://www.w3.org/2000/svg" xmlns:xlink="http://www.w3.org/1999/xlink" viewBox="0 0 64 64" width="64px" height="64px">
<g id="surface196325174">
<path style=" stroke:none;fill-rule:nonzero;fill:rgb(100%,100%,100%);fill-opacity:1;" d="M 32 4 C 16.546875 4 4 16.546875 4 32 C 4 47.453125 16.546875 60 32 60 C 47.453125 60 60 47.453125 60 32 C 60 16.546875 47.453125 4 32 4 Z M 32 6 C 46.371094 6 58 17.628906 58 32 C 58 46.371094 46.371094 58 32 58 C 17.628906 58 6 46.371094 6 32 C 6 17.628906 17.628906 6 32 6 Z M 33.394531 9.046875 C 32.847656 9.027344 32.371094 9.429688 32.339844 9.984375 L 32.21875 11.980469 C 32.1875 12.53125 32.605469 13.007812 33.15625 13.039062 C 33.179688 13.039062 33.199219 13.039062 33.21875 13.039062 C 33.742188 13.039062 34.1875 12.632812 34.21875 12.101562 L 34.335938 10.105469 C 34.371094 9.554688 33.949219 9.078125 33.398438 9.046875 Z M 27.925781 9.363281 C 27.382812 9.460938 27.019531 9.980469 27.117188 10.523438 L 27.46875 12.492188 C 27.558594 12.976562 27.976562 13.316406 28.453125 13.316406 C 28.511719 13.316406 28.570312 13.3125 28.628906 13.304688 C 29.175781 13.207031 29.539062 12.6875 29.4375 12.144531 L 29.085938 10.175781 C 28.992188 9.628906 28.472656 9.269531 27.925781 9.363281 Z M 38.398438 9.988281 C 38.011719 10.023438 37.667969 10.289062 37.542969 10.6875 L 36.953125 12.597656 C 36.789062 13.125 37.085938 13.683594 37.609375 13.847656 C 37.710938 13.878906 37.808594 13.894531 37.90625 13.894531 C 38.335938 13.894531 38.730469 13.617188 38.863281 13.1875 L 39.453125 11.277344 C 39.617188 10.75 39.320312 10.191406 38.792969 10.027344 C 38.664062 9.988281 38.527344 9.972656 38.398438 9.984375 Z M 23.066406 10.886719 C 22.9375 10.886719 22.804688 10.914062 22.679688 10.972656 C 22.171875 11.195312 21.945312 11.785156 22.171875 12.292969 L 22.984375 14.117188 C 23.148438 14.488281 23.515625 14.710938 23.898438 14.710938 C 24.035156 14.710938 24.171875 14.6875 24.304688 14.625 C 24.808594 14.402344 25.035156 13.8125 24.8125 13.304688 L 24 11.480469 C 23.832031 11.101562 23.457031 10.878906 23.066406 10.886719 Z M 43.425781 12.128906 C 43.042969 12.074219 42.644531 12.25 42.429688 12.605469 L 41.402344 14.320312 C 41.117188 14.792969 41.269531 15.410156 41.742188 15.695312 C 41.90625 15.789062 42.085938 15.835938 42.261719 15.835938 C 42.601562 15.835938 42.929688 15.664062 43.117188 15.351562 L 44.148438 13.636719 C 44.429688 13.160156 44.277344 12.546875 43.804688 12.265625 C 43.683594 12.191406 43.554688 12.148438 43.429688 12.128906 Z M 43 19 C 42.449219 19 42 19.449219 42 20 C 42 20.550781 42.449219 21 43 21 C 43.550781 21 44 20.550781 44 20 C 44 19.449219 43.550781 19 43 19 Z M 36.953125 21.804688 C 36.355469 21.808594 35.769531 21.882812 35.226562 22.039062 C 34.679688 22.195312 34.164062 22.433594 33.738281 22.832031 C 33.308594 23.234375 33 23.847656 33 24.5 C 33 25.417969 33.621094 26.117188 34.226562 26.519531 C 34.832031 26.921875 35.503906 27.175781 36.128906 27.425781 C 36.753906 27.675781 37.332031 27.921875 37.664062 28.144531 C 37.996094 28.367188 38 28.417969 38 28.5 C 38 28.695312 37.804688 29.011719 37.121094 29.238281 C 36.4375 29.464844 35.40625 29.488281 34.371094 29.070312 C 34.035156 28.921875 33.644531 28.964844 33.351562 29.191406 C 33.0625 29.414062 32.914062 29.777344 32.972656 30.140625 C 33.03125 30.503906 33.28125 30.804688 33.628906 30.925781 C 35.09375 31.511719 36.5625 31.535156 37.753906 31.136719 C 38.945312 30.738281 40 29.804688 40 28.5 C 40 27.582031 39.378906 26.882812 38.773438 26.480469 C 38.167969 26.078125 37.496094 25.820312 36.871094 25.570312 C 36.246094 25.320312 35.667969 25.078125 35.335938 24.855469 C 35.003906 24.632812 35 24.582031 35 24.5 C 35 24.402344 35.003906 24.390625 35.105469 24.289062 C 35.210938 24.191406 35.445312 24.054688 35.773438 23.960938 C 36.433594 23.773438 37.429688 23.761719 38.257812 23.96875 C 38.605469 24.058594 38.972656 23.953125 39.21875 23.695312 C 39.46875 23.4375 39.558594 23.066406 39.460938 22.722656 C 39.363281 22.378906 39.089844 22.117188 38.742188 22.027344 C 38.15625 21.882812 37.550781 21.804688 36.953125 21.804688 Z M 49.667969 21.824219 C 49.1875 21.824219 48.746094 21.898438 48.347656 22.042969 C 47.550781 22.332031 46.972656 22.90625 46.628906 23.503906 C 45.949219 24.699219 46 26 46 26.5 C 46 27.25 45.933594 28.546875 46.648438 29.710938 C 47.007812 30.292969 47.617188 30.816406 48.40625 31.046875 C 49.199219 31.277344 50.128906 31.25 51.242188 30.972656 C 51.589844 30.882812 51.863281 30.621094 51.960938 30.277344 C 52.058594 29.933594 51.96875 29.5625 51.71875 29.304688 C 51.472656 29.046875 51.105469 28.941406 50.757812 29.03125 C 49.871094 29.25 49.300781 29.222656 48.964844 29.125 C 48.632812 29.027344 48.492188 28.894531 48.351562 28.664062 C 48.066406 28.203125 48 27.25 48 26.5 C 48 26 48.050781 25.050781 48.367188 24.496094 C 48.527344 24.21875 48.699219 24.042969 49.027344 23.925781 C 49.355469 23.808594 49.890625 23.753906 50.757812 23.972656 C 51.105469 24.058594 51.472656 23.953125 51.71875 23.695312 C 51.96875 23.4375 52.058594 23.066406 51.960938 22.722656 C 51.863281 22.378906 51.589844 22.117188 51.242188 22.03125 C 50.675781 21.886719 50.152344 21.820312 49.667969 21.824219 Z M 12.984375 21.988281 C 12.433594 21.996094 11.992188 22.449219 12 23 L 12 23.847656 C 11.980469 23.957031 11.980469 24.070312 12 24.179688 L 12 30 C 11.996094 30.359375 12.183594 30.695312 12.496094 30.878906 C 12.808594 31.058594 13.191406 31.058594 13.503906 30.878906 C 13.816406 30.695312 14.003906 30.359375 14 30 L 14 24.402344 C 14.28125 24.121094 14.523438 24 15.5 24 C 15.8125 24 15.945312 24.074219 15.992188 24.105469 C 15.996094 24.121094 15.996094 24.132812 16 24.144531 L 16 30 C 15.996094 30.359375 16.183594 30.695312 16.496094 30.878906 C 16.808594 31.058594 17.191406 31.058594 17.503906 30.878906 C 17.816406 30.695312 18.003906 30.359375 18 30 L 18 24.445312 C 18.277344 24.167969 18.53125 24 19.5 24 C 19.816406 24 19.953125 24.078125 20 24.105469 L 20 30 C 19.996094 30.359375 20.183594 30.695312 20.496094 30.878906 C 20.808594 31.058594 21.191406 31.058594 21.503906 30.878906 C 21.816406 30.695312 22.003906 30.359375 22 30 L 22 24 C 22 23.417969 21.6875 22.859375 21.222656 22.511719 C 20.761719 22.164062 20.167969 22 19.5 22 C 18.507812 22 17.816406 22.265625 17.261719 22.585938 C 17.242188 22.566406 17.246094 22.527344 17.222656 22.511719 C 16.761719 22.164062 16.167969 22 15.5 22 C 14.796875 22 14.222656 22.136719 13.746094 22.324219 C 13.554688 22.105469 13.277344 21.984375 12.984375 21.988281 Z M 24.984375 21.988281 C 24.433594 21.996094 23.992188 22.449219 24 23 L 24 28 C 24 28.859375 24.121094 29.59375 24.59375 30.1875 C 25.066406 30.78125 25.832031 31 26.5 31 C 27.332031 31 28.054688 30.65625 28.765625 30.230469 C 28.851562 30.179688 28.917969 30.101562 29.003906 30.042969 C 29.035156 30.582031 29.484375 30.992188 30.023438 30.980469 C 30.558594 30.96875 30.992188 30.535156 31 30 L 31 28.125 C 31.011719 28.035156 31.011719 27.945312 31 27.851562 L 31 23 C 31.003906 22.640625 30.816406 22.304688 30.503906 22.121094 C 30.191406 21.941406 29.808594 21.941406 29.496094 22.121094 C 29.183594 22.304688 28.996094 22.640625 29 23 L 29 27.523438 C 28.605469 27.882812 28.175781 28.253906 27.738281 28.515625 C 27.195312 28.84375 26.667969 29 26.5 29 C 26.167969 29 26.183594 28.96875 26.15625 28.9375 C 26.128906 28.90625 26 28.640625 26 28 L 26 23 C 26.003906 22.730469 25.898438 22.46875 25.707031 22.277344 C 25.515625 22.085938 25.253906 21.980469 24.984375 21.984375 Z M 42.984375 21.988281 C 42.433594 21.996094 41.992188 22.449219 42 23 L 42 30 C 41.996094 30.359375 42.183594 30.695312 42.496094 30.878906 C 42.808594 31.058594 43.191406 31.058594 43.503906 30.878906 C 43.816406 30.695312 44.003906 30.359375 44 30 L 44 23 C 44.003906 22.730469 43.898438 22.46875 43.707031 22.277344 C 43.515625 22.085938 43.253906 21.980469 42.984375 21.988281 Z M 47.304688 34.507812 C 45.273438 34.4375 43 34.972656 43 35.8125 C 43 36.445312 44.9375 36.851562 46.261719 37.0625 C 42.554688 38.328125 36.234375 40 31 40 C 26.414062 40 18.910156 38.25 14.730469 36.976562 C 14.195312 36.8125 13.835938 37.519531 14.289062 37.851562 C 17.503906 40.214844 23.78125 44 31 44 C 38.820312 44 44.65625 40.410156 47.355469 37.949219 C 47.148438 39.265625 46.792969 42 47.476562 42 C 48.476562 42 51.503906 36.765625 50.164062 35.335938 C 49.660156 34.800781 48.527344 34.546875 47.304688 34.503906 Z M 42.121094 48.175781 C 41.992188 48.191406 41.863281 48.234375 41.746094 48.304688 C 41.273438 48.589844 41.117188 49.207031 41.402344 49.679688 L 42.429688 51.394531 C 42.617188 51.707031 42.949219 51.878906 43.289062 51.878906 C 43.464844 51.878906 43.644531 51.832031 43.804688 51.738281 C 44.277344 51.453125 44.429688 50.839844 44.148438 50.367188 L 43.117188 48.652344 C 42.902344 48.296875 42.507812 48.121094 42.121094 48.175781 Z M 23.917969 49.289062 C 23.527344 49.28125 23.152344 49.503906 22.984375 49.882812 L 22.171875 51.707031 C 21.949219 52.214844 22.175781 52.804688 22.679688 53.027344 C 22.8125 53.089844 22.949219 53.113281 23.085938 53.113281 C 23.46875 53.113281 23.832031 52.894531 24 52.519531 L 24.8125 50.695312 C 25.035156 50.1875 24.808594 49.597656 24.304688 49.375 C 24.179688 49.316406 24.046875 49.292969 23.917969 49.289062 Z M 38.011719 50.113281 C 37.878906 50.101562 37.746094 50.113281 37.613281 50.152344 C 37.085938 50.316406 36.789062 50.875 36.953125 51.402344 L 37.546875 53.3125 C 37.679688 53.742188 38.070312 54.019531 38.5 54.019531 C 38.597656 54.019531 38.695312 54.003906 38.796875 53.976562 C 39.320312 53.8125 39.617188 53.25 39.453125 52.722656 L 38.863281 50.8125 C 38.742188 50.417969 38.398438 50.15625 38.011719 50.113281 Z M 28.632812 50.699219 C 28.085938 50.597656 27.570312 50.960938 27.46875 51.507812 L 27.117188 53.476562 C 27.019531 54.019531 27.382812 54.535156 27.925781 54.636719 C 27.988281 54.644531 28.042969 54.652344 28.101562 54.652344 C 28.578125 54.652344 29 54.3125 29.085938 53.828125 L 29.4375 51.859375 C 29.535156 51.3125 29.175781 50.796875 28.632812 50.699219 Z M 33.15625 50.960938 C 32.605469 50.996094 32.1875 51.46875 32.21875 52.019531 L 32.339844 54.015625 C 32.371094 54.546875 32.8125 54.953125 33.335938 54.953125 C 33.355469 54.953125 33.375 54.953125 33.394531 54.953125 C 33.949219 54.917969 34.367188 54.445312 34.335938 53.894531 L 34.214844 51.898438 C 34.183594 51.347656 33.707031 50.933594 33.15625 50.960938 Z M 33.15625 50.960938 "/>
</g>
</svg>
